<svg xmlns="http://www.w3.org/2000/svg" id="Слой_1" data-name="Слой 1" viewBox="0 0 550 309.22" class="logo"><defs><style>.cls-1{fill:transparent;}.cls-2{fill:#fff;}</style></defs><title>проакпп_cs5</title><rect class="cls-1" width="550" height="309.22"></rect><path class="cls-2" d="M484.62,149.49H436V124.08H399.51C386,68.42,335.71,27,275.93,27s-110,41.46-123.57,97.12H115.91v25.41H67.25l18.2,29.7-18.2,29.7h93.88a127.17,127.17,0,0,0,229.61,0h93.88l-18.2-29.7ZM394.44,200.3c0-.1.08-.19.11-.29v.12L436,183.49V158.08h33.31l-12.93,21.11,12.93,21.11Zm-13.33,8.59a118.52,118.52,0,0,1-210.35,0c-.74-1.41-1.46-2.84-2.14-4.29s-1.34-2.85-2-4.3A118.6,118.6,0,0,1,161,183.49h47.51l3.79-4.3,0-.05-1.51-4.25H124.51V132.67h86.54l0-.18-4-4.11-2.85-2.92-1.35-1.38H161.2a118.61,118.61,0,0,1,229.46,0h-47l-3.75,4.3-.44.49,1.37,3.8h86.55v42.22H341l-.19.65,3.6,3.65,3.31,3.35.93,1h42.19a118.6,118.6,0,0,1-5.67,16.81c-.62,1.45-1.28,2.88-1.95,4.3S381.85,207.48,381.11,208.89ZM95.53,179.19,82.6,158.08h33.31v25.41l41.4,16.81H82.6ZM157.4,200.3l-.06-.23.09.23Z"></path><path class="cls-2" d="M236.94,198.72l11.92,8.17-1.35,14.54a73.24,73.24,0,0,0,16.12,4.75l6.74-13,14.45-.4,7.45,12.57a73.62,73.62,0,0,0,15.83-5.67l-2.17-14.43,11.45-8.84,13.4,5.75a72.76,72.76,0,0,0,9.49-13.87l-4.93-5-4.16-4.21L330,177.94,333,167.89l1.12-3.84,14.24-3.23a75.79,75.79,0,0,0,.23-8.54,68,68,0,0,0-.76-8.25l-14.38-2.39-.45-1.27-3.95-11-.47-1.32,2.52-2.88,7.06-8.1a71.87,71.87,0,0,0-10.27-13.29l-13,6.54-11.95-8.13,1.29-14.53A71.6,71.6,0,0,0,288.5,83L281.73,96l-14.46.34-7.42-12.58A71.86,71.86,0,0,0,244,89.34l2.13,14.44-11.49,8.78-13.39-5.77a72.68,72.68,0,0,0-9.51,13.83l4.43,4.54,5.55,5.67.21.21-.21.69-3.89,13.16-.31.07-4.21.95-9.71,2.19a72.63,72.63,0,0,0-.28,8.77,77.89,77.89,0,0,0,.72,8l9.27,1.56,4.21.71.9.15,3.3,9.31,1.53,4.31-1.53,1.73-.59.68-7.52,8.55a73.69,73.69,0,0,0,10.26,13.35Zm39-91.06a47,47,0,1,1-47,47A46.95,46.95,0,0,1,275.93,107.66Z"></path><polygon class="cls-2" points="139.64 141.54 139.64 149.93 139.64 154.23 139.64 158.53 139.64 166.78 148.4 166.78 150.46 166.78 150.46 163.18 148.12 163.18 143.6 163.18 143.6 158.53 143.6 155.78 147.83 155.78 149.05 155.78 149.05 154.23 149.05 152.18 147.86 152.18 143.6 152.18 143.6 149.93 143.6 145.15 148.19 145.15 150.46 145.15 150.46 141.54 148.47 141.54 139.64 141.54"></polygon><path class="cls-2" d="M163,154.23c-1.48-1.51-3.16-2.73-4.11-4.3a4.83,4.83,0,0,1-.75-2.59c0-1.8.73-2.48,2-2.48s2,.68,2,2.48v1h3.75v-.79c0-4-2-6.35-5.84-6.35a6.5,6.5,0,0,0-3,.64c-1.9.94-2.88,2.89-2.88,5.71a8.42,8.42,0,0,0,.31,2.33,8.73,8.73,0,0,0,1.91,3.42c.26.31.53.6.81.88,1.49,1.5,3.15,2.72,4,4.3A4.82,4.82,0,0,1,162,161c0,1.8-.79,2.45-2.05,2.45s-2.06-.65-2.06-2.45v-1.81H154.1v1.55c0,2.81,1,4.75,2.88,5.69a6.68,6.68,0,0,0,3,.66c3.9,0,5.92-2.3,5.92-6.35a8.8,8.8,0,0,0-.28-2.19A9.5,9.5,0,0,0,163,154.23Z"></path><polygon class="cls-2" points="168.85 145.15 173 145.15 173 149.93 173 154.23 173 158.53 173 166.78 176.96 166.78 176.96 158.53 176.96 154.23 176.96 149.93 176.96 145.15 181.11 145.15 181.11 141.54 168.85 141.54 168.85 145.15"></polygon><polygon class="cls-2" points="182.48 162.96 182.48 166.78 182.56 166.78 186.31 166.78 186.31 162.96 182.56 162.96 182.48 162.96"></polygon><path class="cls-2" d="M249,173.53l0,0-.08.07-.12.11-.1.09c-.09.1-.18.2-.28.33a8,8,0,0,0-.6.91,4.52,4.52,0,0,0,5.68,6.37,6.21,6.21,0,0,0,1.55-.93l21-19.17,21,19.18a6.57,6.57,0,0,0,1.56.93,5,5,0,0,0,1.73.31,4.46,4.46,0,0,0,3.32-1.44,4.58,4.58,0,0,0,.61-5.25h0a7.8,7.8,0,0,0-.6-.9,3.24,3.24,0,0,0-.29-.34l-.1-.09-.1-.1-.11-.09-.16.19.1-.25-.1-.08c-4.19-3.69-12.36-10.92-20.27-18l11.16-10.22c.18-.11,2.07-1.26,5.32.08l1,.43-.87-2.38c1.54-.55,6.48-2.78,5.37-8.39l-.12-.6-7.19,3.12a5.06,5.06,0,0,1-.62-.68,5,5,0,0,1-1-3.11l7.58-3.11-.67-.52c-.07-.05-6.74-5.09-10.8-.84-2.48,2.6-2.63,4.25-2.77,5.85a6,6,0,0,1-.72,2.71A9.75,9.75,0,0,1,287,139c-1.77,1.84-5.51,5.36-11.11,10.47-5.61-5.12-9.34-8.64-11.11-10.47a8.93,8.93,0,0,1-1.1-1.27A6,6,0,0,1,263,135c-.15-1.59-.29-3.24-2.77-5.83-4.08-4.26-10.74.78-10.8.83l-.68.52,7.59,3.11a5.11,5.11,0,0,1-1.66,3.79l-6.91-3-.29-.12-.12.6c-1.11,5.61,3.84,7.84,5.38,8.39l-.87,2.38,1-.43c3.24-1.34,5.14-.19,5.32-.08l11.16,10.22c-8.26,7.43-16.91,15.08-20.25,18l-.1.08.16.19h0Zm24.09-14.8-18.42,16.85a2.45,2.45,0,0,0-.43-.62,2.78,2.78,0,0,0-1.14-.77l18.44-16.87ZM251.24,176a1.19,1.19,0,0,1,.82-.32h.05a1.2,1.2,0,0,1,.84.4,1.21,1.21,0,0,1-.07,1.71h0a1.21,1.21,0,1,1-1.64-1.79Zm-.46-1.74-.2-.21c2.66-2.34,8.27-7.3,14.44-12.82Zm37.81-32.6a1.3,1.3,0,0,1,.9-.35h.06a1.33,1.33,0,0,1,1.27,1.29,19.29,19.29,0,0,0-1.73,1.43l-9.5,8.69-1.55-1.4Zm2.14-8.84.71-1.19.76-.94c.16-.18.32-.37.51-.56,2.11-2.21,5.32-1.06,7.3,0l-5.9,2.42,0,.61a6.51,6.51,0,0,0,1.33,4.41,6.42,6.42,0,0,0,1,1l.55.47,5.58-2.42a7.66,7.66,0,0,1-4.08,3.94l-.29-.61-.55,0c-.09,0-2.25-.21-5.46,1.76a2.61,2.61,0,0,0-.57-1,2.77,2.77,0,0,0-2.07-.91,2.81,2.81,0,0,0-1.9.73l-1.2,1.1c.69-.67,1.27-1.24,1.71-1.71a9.09,9.09,0,0,0,1.33-1.56,7.28,7.28,0,0,0,.9-3.32l0-.06v-.13h0l0-.55,2.68,2.25Zm10.55,41.23-.19.21-14.23-13C293.35,167.08,299.12,172.18,301.28,174.09Zm-2.37,2a1.24,1.24,0,0,1,.84-.4h.06a1.21,1.21,0,0,1,.82.32,1.27,1.27,0,0,1,.39.84,1.23,1.23,0,0,1-.32.88,1.21,1.21,0,1,1-1.79-1.64Zm-37.52-34.34a1.34,1.34,0,0,1,1.89-.08l35.51,32.49a2.88,2.88,0,0,0-1.15.77,2.74,2.74,0,0,0-.43.62l-34.43-31.51c-.57-.52-1.14-1-1.73-1.43A1.34,1.34,0,0,1,261.39,141.78Zm.39-6.68Zm-.31-.73.06.76a7.3,7.3,0,0,0,.91,3.31,8.26,8.26,0,0,0,1.32,1.56q.67.7,1.71,1.71l-1.2-1.1a2.82,2.82,0,0,0-4,.18,2.61,2.61,0,0,0-.57,1,10.21,10.21,0,0,0-5.21-1.77h-.25l-.55,0-.28.61a7.69,7.69,0,0,1-4.09-3.94l5.58,2.42.56-.47a6.42,6.42,0,0,0,1-1,6.51,6.51,0,0,0,1.33-4.41l-.05-.61-5.89-2.42c2-1.08,5.18-2.24,7.3,0,.18.18.34.37.5.55l.07.08.13.15.54.68.74,1.22-2.35,3.76Z"></path><path class="cls-2" d="M222.65,65.43l1.84,3c2.26,3.73,1.68,6.86-2,9.08l-1.73,1,5.3,8.77-3.67,2.22L208.28,66.23,213.69,63C217.36,60.75,220.39,61.69,222.65,65.43ZM214,67.35l4.78,7.91,1.74-1.05c1.16-.7,1.48-1.62.47-3.29l-2.12-3.5c-1-1.67-2-1.82-3.13-1.12Z"></path><path class="cls-2" d="M245.22,78.34a8.36,8.36,0,0,1-1.52-3l-1.46-4c-.86-2.39-2-3-3.82-2.31l-1.4.51,3.8,10.44-4,1.47-9.31-25.66,6.09-2.21c4.17-1.51,6.67-.22,8.11,3.73l.73,2c1,2.64.74,4.67-.75,6.16,2.33.11,3.69,1.82,4.66,4.49l1.44,4a8,8,0,0,0,1.57,3Zm-12.39-20.4,2.86,7.88,1.58-.57c1.5-.55,2.18-1.54,1.43-3.59l-.91-2.53c-.67-1.83-1.58-2.41-3-1.89Z"></path><path class="cls-2" d="M249.76,55.49c-.65-4.32,1.26-7.13,5.42-7.76s6.81,1.5,7.46,5.82l2.12,14c.65,4.32-1.25,7.13-5.42,7.76s-6.81-1.5-7.46-5.81Zm6.4,13.67c.29,1.92,1.25,2.53,2.6,2.33s2.09-1.07,1.8-3l-2.2-14.57c-.29-1.93-1.25-2.53-2.6-2.33s-2.09,1.06-1.79,3Z"></path><path class="cls-2" d="M284,74.5l-4.32-.2-.51-5-5.26-.25-1,4.92L269,73.8l5.64-27.06,6.27.29Zm-9.37-9.1,4.13.19L277.33,51.7Z"></path><path class="cls-2" d="M295.7,66l-1.9,2.09-2.07,8.13-4.16-1.06,6.73-26.46,4.16,1.06-2.93,11.53,8.37-10.14,4.16,1.05-8.78,10.32,2.05,16.14-4.27-1.09Z"></path><path class="cls-2" d="M325,67l-1.54,3.2c-1.89,3.94-4.81,5.17-8.68,3.32L313,72.64l-4.44,9.24L304.65,80l11.82-24.61,5.69,2.73C326,60,326.9,63.06,325,67Zm-6.36-6.21-4,8.33,1.83.88c1.23.59,2.16.35,3-1.41l1.77-3.69c.84-1.76.45-2.64-.78-3.23Z"></path><path class="cls-2" d="M341.85,78.68l-2.12,2.85c-2.6,3.5-5.71,4.16-9.15,1.61L329,81.93l-6.11,8.24-3.44-2.56,16.25-21.93,5.08,3.77C344.17,72,344.45,75.17,341.85,78.68Zm-5.07-7.31-5.51,7.43L332.9,80c1.1.82,2.06.76,3.22-.81l2.44-3.29c1.16-1.56.94-2.51-.15-3.32Z"></path><path class="cls-2" d="M224.55,230.44l-1.73,2c-2.12,2.43-4.45,2.73-6.83.64l-1.13-1-5,5.7-2.39-2.09,13.28-15.16,3.51,3.07C226.66,225.67,226.67,228,224.55,230.44Zm-3.29-5.68-4.5,5.14,1.13,1c.75.67,1.47.68,2.42-.4l2-2.28c.95-1.08.84-1.79.08-2.45Z"></path><path class="cls-2" d="M227.66,236.82l3.65,2.36-1.56,2.42-3.65-2.37-3.21,5,4.59,3-1.57,2.41-7.24-4.69,11-16.91,7.25,4.69-1.56,2.42-4.59-3Z"></path><path class="cls-2" d="M239.47,249.76l7.6-12.32,4.05,1.73-7.91,18.54-2.75-1.18,5.67-13.29-7.68,12.43-2.76-1.17,3.42-14-5.59,13.11L231,252.49,238.89,234l4.05,1.73Z"></path><path class="cls-2" d="M252.45,244.5c.72-3.14,2.79-4.55,5.82-3.86s4.27,2.88,3.55,6l-2.35,10.21c-.73,3.15-2.8,4.56-5.83,3.86s-4.27-2.87-3.55-6Zm.69,11.12c-.33,1.41.17,2.08,1.15,2.31s1.72-.17,2-1.57l2.45-10.61c.32-1.4-.18-2.07-1.16-2.3s-1.72.16-2,1.57Z"></path><path class="cls-2" d="M267.27,262.67l-3.16-.22,1.39-20.11,3.16.22-.59,8.62,3.59.25.59-8.62,3.22.22-1.39,20.11-3.22-.22.6-8.62-3.59-.25Z"></path><path class="cls-2" d="M277.55,243l9.76-.78.23,2.87-3.3.26,1.38,17.22-3.16.26-1.38-17.23-3.3.27Z"></path><path class="cls-2" d="M310.92,256.89l-3.05.95-1.61-3.33-3.71,1.16.57,3.65-2.78.87L297.41,240l4.43-1.38Zm-8.8-3.95L305,252l-4.49-9.28Z"></path><path class="cls-2" d="M315.91,245.84l-.06,2.08,2.75,5.55-2.84,1.41-9-18.06,2.84-1.41,3.9,7.87-.19-9.71,2.84-1.41.05,10,8.91,8.05-2.91,1.44Z"></path><path class="cls-2" d="M332.19,245.62l-2.57,1.85-11.73-16.39,8.12-5.82,11.73,16.39-2.62,1.88-10.06-14.05-2.92,2.1Z"></path><path class="cls-2" d="M344.65,235.48l-2.24,2.23L328.2,223.42l7.09-7,14.2,14.3-2.28,2.27L335,220.69l-2.55,2.54Z"></path><path class="cls-2" d="M374.18,163.6v-2.79h-5.81a2,2,0,0,1,0-.42,3.41,3.41,0,0,1,.65-1.86c.84-1.3,2.34-2.61,3.57-4.3a9.36,9.36,0,0,0,1.81-4.3,7.56,7.56,0,0,0,.09-1.19c0-3.13-1.57-4.91-4.58-4.91s-4.59,1.78-4.59,4.91v1.9h2.91v-2.09c0-1.4.62-1.93,1.59-1.93s1.59.47,1.59,2.23a7.3,7.3,0,0,1-.08,1.08,8.21,8.21,0,0,1-2.28,4.3c-1.71,1.94-3.73,3.66-3.73,7v2.4h8.89Z"></path><path class="cls-2" d="M382.17,163.83c3,0,4.66-1.79,4.66-4.92V148.74c0-3.13-1.65-4.91-4.66-4.91s-4.67,1.78-4.67,4.91v10.17C377.5,162,379.15,163.83,382.17,163.83Zm-1.59-9.6v-5.68c0-1.4.61-1.93,1.59-1.93s1.59.53,1.59,1.93v10.56c0,1.39-.61,1.92-1.59,1.92s-1.59-.53-1.59-1.92v-4.88Z"></path><path class="cls-2" d="M394.49,148.69V163.6h3.07V144.05h-2.07c-.46,1.26-1,2.36-3.14,2.44l-.24,0v2.18h2.38Z"></path><path class="cls-2" d="M405.9,157.14v1.8c0,1.38.61,1.87,1.57,1.87s1.58-.49,1.58-1.87v-4.26c0-1.38-.61-1.9-1.58-1.9s-1.57.52-1.57,1.9v.58H403l.55-11.21h8v2.76h-5.28l-.24,4.61a2.89,2.89,0,0,1,2.65-1.41c2.24,0,3.37,1.58,3.37,4.42v4.31c0,3.09-1.55,4.86-4.53,4.86s-4.53-1.77-4.53-4.86v-1.6Z"></path></svg>
